# xmcd
#
# Track frame offsets:
#	150
#	19767
#	42175
#	62000
#	82185
#	100807
#	124050
#	141552
#	164512
#	186532
#
# Disc length: 2749 seconds
#
# Revision: 1
# Processed by: cddbd v1.5.1PL0 Copyright (c) Steve Scherf et al.
# Submitted via: CDex 1.50Beta5
#
DISCID=910abb0a
DTITLE=Selfish - Colors of Love
DYEAR=1993
DGENRE=
TTITLE0=Spining wheele
TTITLE1=自由になって
TTITLE2=回り続けて
TTITLE3=先ゆき夢
TTITLE4=明日のメモリー
TTITLE5=君が、かわいかった
TTITLE6=Moonlight Party
TTITLE7=少年の夢
TTITLE8=感じるままに
TTITLE9=PEAK
EXTD=
EXTT0=
EXTT1=
EXTT2=
EXTT3=
EXTT4=
EXTT5=
EXTT6=
EXTT7=
EXTT8=
EXTT9=
PLAYORDER=
